<mxfile host="app.diagrams.net" modified="2021-01-24T13:03:18.040Z" agent="5.0 (Windows)" etag="3W5MxDUac7jlFOLbh1tp" version="14.1.8" type="github">
  <diagram id="Q63wmY83I0-QKWWLxbRq" name="Page-1">
    <mxGraphModel dx="1846" dy="1124" grid="1" gridSize="10" guides="1" tooltips="1" connect="1" arrows="1" fold="1" page="1" pageScale="1" pageWidth="850" pageHeight="1100" math="0" shadow="0">
      <root>
        <mxCell id="0" />
        <mxCell id="1" parent="0" />
        <mxCell id="R4GnytLcIR0kRU2dagbc-1" value="CIF" style="rounded=1;whiteSpace=wrap;html=1;" vertex="1" parent="1">
          <mxGeometry x="160" y="152" width="120" height="100" as="geometry" />
        </mxCell>
        <mxCell id="R4GnytLcIR0kRU2dagbc-2" value="" style="endArrow=classic;html=1;entryX=0;entryY=0;entryDx=0;entryDy=35.125;entryPerimeter=0;exitX=1;exitY=0.25;exitDx=0;exitDy=0;" edge="1" parent="1" source="R4GnytLcIR0kRU2dagbc-1" target="R4GnytLcIR0kRU2dagbc-4">
          <mxGeometry relative="1" as="geometry">
            <mxPoint x="280" y="161.5" as="sourcePoint" />
            <mxPoint x="380" y="161.5" as="targetPoint" />
          </mxGeometry>
        </mxCell>
        <mxCell id="R4GnytLcIR0kRU2dagbc-3" value="Search each word" style="edgeLabel;resizable=0;html=1;align=center;verticalAlign=middle;" connectable="0" vertex="1" parent="R4GnytLcIR0kRU2dagbc-2">
          <mxGeometry relative="1" as="geometry" />
        </mxCell>
        <mxCell id="R4GnytLcIR0kRU2dagbc-4" value="MongoDb" style="shape=cylinder3;whiteSpace=wrap;html=1;boundedLbl=1;backgroundOutline=1;size=15;" vertex="1" parent="1">
          <mxGeometry x="470" y="142" width="150" height="110.5" as="geometry" />
        </mxCell>
        <mxCell id="R4GnytLcIR0kRU2dagbc-6" value="Return a lot of records" style="shape=singleArrow;direction=west;whiteSpace=wrap;html=1;" vertex="1" parent="1">
          <mxGeometry x="280" y="192.5" width="190" height="60" as="geometry" />
        </mxCell>
        <mxCell id="R4GnytLcIR0kRU2dagbc-11" value="Use Projection to only Return minimum required information that is needed" style="whiteSpace=wrap;html=1;rounded=1;arcSize=50;align=center;verticalAlign=middle;strokeWidth=1;autosize=1;spacing=4;treeFolding=1;treeMoving=1;newEdgeStyle={&quot;edgeStyle&quot;:&quot;entityRelationEdgeStyle&quot;,&quot;startArrow&quot;:&quot;none&quot;,&quot;endArrow&quot;:&quot;none&quot;,&quot;segment&quot;:10,&quot;curved&quot;:1};" vertex="1" parent="1">
          <mxGeometry x="160" y="290" width="220" height="30" as="geometry" />
        </mxCell>
        <mxCell id="R4GnytLcIR0kRU2dagbc-12" value="" style="edgeStyle=entityRelationEdgeStyle;startArrow=none;endArrow=none;segment=10;curved=1;exitX=0.132;exitY=0.325;exitDx=0;exitDy=0;exitPerimeter=0;" edge="1" target="R4GnytLcIR0kRU2dagbc-11" parent="1" source="R4GnytLcIR0kRU2dagbc-6">
          <mxGeometry relative="1" as="geometry">
            <mxPoint x="420" y="392" as="sourcePoint" />
          </mxGeometry>
        </mxCell>
        <mxCell id="R4GnytLcIR0kRU2dagbc-13" value="Query Embedded Documents" style="whiteSpace=wrap;html=1;rounded=1;arcSize=50;align=center;verticalAlign=middle;strokeWidth=1;autosize=1;spacing=4;treeFolding=1;treeMoving=1;newEdgeStyle={&quot;edgeStyle&quot;:&quot;entityRelationEdgeStyle&quot;,&quot;startArrow&quot;:&quot;none&quot;,&quot;endArrow&quot;:&quot;none&quot;,&quot;segment&quot;:10,&quot;curved&quot;:1};" vertex="1" parent="1">
          <mxGeometry x="377" y="80" width="203" height="30" as="geometry" />
        </mxCell>
        <mxCell id="R4GnytLcIR0kRU2dagbc-14" value="" style="edgeStyle=entityRelationEdgeStyle;startArrow=none;endArrow=none;segment=10;curved=1;" edge="1" target="R4GnytLcIR0kRU2dagbc-13" parent="1">
          <mxGeometry relative="1" as="geometry">
            <mxPoint x="312" y="177" as="sourcePoint" />
          </mxGeometry>
        </mxCell>
        <mxCell id="R4GnytLcIR0kRU2dagbc-15" value="CIF" style="rounded=1;whiteSpace=wrap;html=1;" vertex="1" parent="1">
          <mxGeometry x="160" y="477" width="120" height="88" as="geometry" />
        </mxCell>
        <mxCell id="R4GnytLcIR0kRU2dagbc-16" value="" style="endArrow=classic;html=1;entryX=0;entryY=0;entryDx=0;entryDy=35.125;entryPerimeter=0;exitX=1;exitY=0.25;exitDx=0;exitDy=0;" edge="1" parent="1" source="R4GnytLcIR0kRU2dagbc-15" target="R4GnytLcIR0kRU2dagbc-18">
          <mxGeometry relative="1" as="geometry">
            <mxPoint x="294.5" y="481.5" as="sourcePoint" />
            <mxPoint x="394.5" y="481.5" as="targetPoint" />
          </mxGeometry>
        </mxCell>
        <mxCell id="R4GnytLcIR0kRU2dagbc-17" value="Send Linq Expression" style="edgeLabel;resizable=0;html=1;align=center;verticalAlign=middle;" connectable="0" vertex="1" parent="R4GnytLcIR0kRU2dagbc-16">
          <mxGeometry relative="1" as="geometry" />
        </mxCell>
        <mxCell id="R4GnytLcIR0kRU2dagbc-18" value="MongoDb" style="shape=cylinder3;whiteSpace=wrap;html=1;boundedLbl=1;backgroundOutline=1;size=15;" vertex="1" parent="1">
          <mxGeometry x="514.5" y="462" width="150" height="118" as="geometry" />
        </mxCell>
        <mxCell id="R4GnytLcIR0kRU2dagbc-22" value="Linq Expression is evaluated here" style="whiteSpace=wrap;html=1;rounded=1;arcSize=50;align=center;verticalAlign=middle;strokeWidth=1;autosize=1;spacing=4;treeFolding=1;treeMoving=1;newEdgeStyle={&quot;edgeStyle&quot;:&quot;entityRelationEdgeStyle&quot;,&quot;startArrow&quot;:&quot;none&quot;,&quot;endArrow&quot;:&quot;none&quot;,&quot;segment&quot;:10,&quot;curved&quot;:1};" vertex="1" parent="1">
          <mxGeometry x="280" y="410" width="220" height="30" as="geometry" />
        </mxCell>
        <mxCell id="R4GnytLcIR0kRU2dagbc-23" value="" style="edgeStyle=entityRelationEdgeStyle;startArrow=none;endArrow=none;segment=10;curved=1;exitX=0.5;exitY=0;exitDx=0;exitDy=0;exitPerimeter=0;" edge="1" parent="1" target="R4GnytLcIR0kRU2dagbc-22" source="R4GnytLcIR0kRU2dagbc-18">
          <mxGeometry relative="1" as="geometry">
            <mxPoint x="326.5" y="497" as="sourcePoint" />
          </mxGeometry>
        </mxCell>
        <mxCell id="R4GnytLcIR0kRU2dagbc-24" value="" style="endArrow=classic;html=1;entryX=1;entryY=0.75;entryDx=0;entryDy=0;exitX=0;exitY=0;exitDx=0;exitDy=81;exitPerimeter=0;" edge="1" parent="1" source="R4GnytLcIR0kRU2dagbc-18" target="R4GnytLcIR0kRU2dagbc-15">
          <mxGeometry width="50" height="50" relative="1" as="geometry">
            <mxPoint x="414.5" y="510" as="sourcePoint" />
            <mxPoint x="464.5" y="460" as="targetPoint" />
          </mxGeometry>
        </mxCell>
        <mxCell id="R4GnytLcIR0kRU2dagbc-26" value="Only evaluated Records are returned" style="edgeLabel;html=1;align=center;verticalAlign=middle;resizable=0;points=[];" vertex="1" connectable="0" parent="R4GnytLcIR0kRU2dagbc-24">
          <mxGeometry x="0.5053" relative="1" as="geometry">
            <mxPoint x="66" as="offset" />
          </mxGeometry>
        </mxCell>
        <mxCell id="R4GnytLcIR0kRU2dagbc-27" value="CIF" style="rounded=1;whiteSpace=wrap;html=1;" vertex="1" parent="1">
          <mxGeometry x="160" y="757" width="120" height="88" as="geometry" />
        </mxCell>
        <mxCell id="R4GnytLcIR0kRU2dagbc-28" value="" style="endArrow=classic;html=1;entryX=0;entryY=0;entryDx=0;entryDy=35.125;entryPerimeter=0;exitX=1;exitY=0.25;exitDx=0;exitDy=0;" edge="1" parent="1" source="R4GnytLcIR0kRU2dagbc-27" target="R4GnytLcIR0kRU2dagbc-30">
          <mxGeometry relative="1" as="geometry">
            <mxPoint x="294.5" y="761.5" as="sourcePoint" />
            <mxPoint x="394.5" y="761.5" as="targetPoint" />
          </mxGeometry>
        </mxCell>
        <mxCell id="R4GnytLcIR0kRU2dagbc-29" value="Call Java-Script Function" style="edgeLabel;resizable=0;html=1;align=center;verticalAlign=middle;" connectable="0" vertex="1" parent="R4GnytLcIR0kRU2dagbc-28">
          <mxGeometry relative="1" as="geometry" />
        </mxCell>
        <mxCell id="R4GnytLcIR0kRU2dagbc-30" value="MongoDb" style="shape=cylinder3;whiteSpace=wrap;html=1;boundedLbl=1;backgroundOutline=1;size=15;" vertex="1" parent="1">
          <mxGeometry x="514.5" y="742" width="150" height="118" as="geometry" />
        </mxCell>
        <mxCell id="R4GnytLcIR0kRU2dagbc-31" value="Java Script is evaluated here" style="whiteSpace=wrap;html=1;rounded=1;arcSize=50;align=center;verticalAlign=middle;strokeWidth=1;autosize=1;spacing=4;treeFolding=1;treeMoving=1;newEdgeStyle={&quot;edgeStyle&quot;:&quot;entityRelationEdgeStyle&quot;,&quot;startArrow&quot;:&quot;none&quot;,&quot;endArrow&quot;:&quot;none&quot;,&quot;segment&quot;:10,&quot;curved&quot;:1};" vertex="1" parent="1">
          <mxGeometry x="295" y="690" width="190" height="30" as="geometry" />
        </mxCell>
        <mxCell id="R4GnytLcIR0kRU2dagbc-32" value="" style="edgeStyle=entityRelationEdgeStyle;startArrow=none;endArrow=none;segment=10;curved=1;exitX=0.5;exitY=0;exitDx=0;exitDy=0;exitPerimeter=0;" edge="1" parent="1" source="R4GnytLcIR0kRU2dagbc-30" target="R4GnytLcIR0kRU2dagbc-31">
          <mxGeometry relative="1" as="geometry">
            <mxPoint x="326.5" y="777" as="sourcePoint" />
          </mxGeometry>
        </mxCell>
        <mxCell id="R4GnytLcIR0kRU2dagbc-33" value="" style="endArrow=classic;html=1;entryX=1;entryY=0.75;entryDx=0;entryDy=0;exitX=0;exitY=0;exitDx=0;exitDy=81;exitPerimeter=0;" edge="1" parent="1" source="R4GnytLcIR0kRU2dagbc-30" target="R4GnytLcIR0kRU2dagbc-27">
          <mxGeometry width="50" height="50" relative="1" as="geometry">
            <mxPoint x="414.5" y="790" as="sourcePoint" />
            <mxPoint x="464.5" y="740" as="targetPoint" />
          </mxGeometry>
        </mxCell>
        <mxCell id="R4GnytLcIR0kRU2dagbc-34" value="Only evaluated Records are returned" style="edgeLabel;html=1;align=center;verticalAlign=middle;resizable=0;points=[];" vertex="1" connectable="0" parent="R4GnytLcIR0kRU2dagbc-33">
          <mxGeometry x="0.5053" relative="1" as="geometry">
            <mxPoint x="66" as="offset" />
          </mxGeometry>
        </mxCell>
      </root>
    </mxGraphModel>
  </diagram>
</mxfile>
